<svg width="156" height="49" viewBox="0 0 156 49" fill="none" xmlns="http://www.w3.org/2000/svg">
<path opacity="0.3" d="M6.29931 8.44946H1.37183V1.09666H6.0469C6.58099 1.09666 7.02362 1.16616 7.3748 1.30517C7.72597 1.43686 7.98936 1.6344 8.16495 1.89778C8.34054 2.16117 8.42833 2.48674 8.42833 2.8745C8.42833 3.34274 8.28932 3.7305 8.01131 4.03778C7.74061 4.34506 7.26871 4.51333 6.59562 4.5426V4.65234C7.33456 4.68161 7.87962 4.85354 8.23079 5.16814C8.58929 5.48273 8.76854 5.8961 8.76854 6.40824C8.76854 6.81794 8.6844 7.17644 8.51613 7.48372C8.34785 7.791 8.08081 8.02878 7.715 8.19705C7.35651 8.36533 6.88461 8.44946 6.29931 8.44946ZM3.42403 5.57419V6.5948H6.03593C6.28468 6.5948 6.45295 6.56188 6.54075 6.49603C6.63586 6.42287 6.68341 6.28386 6.68341 6.07901C6.68341 5.87415 6.63952 5.7388 6.55172 5.67296C6.46393 5.60711 6.29199 5.57419 6.03593 5.57419H3.42403ZM3.42403 2.95132V3.88414H5.82741C6.03958 3.88414 6.18225 3.85121 6.25541 3.78537C6.32858 3.71221 6.36516 3.59149 6.36516 3.42322C6.36516 3.25494 6.3176 3.13422 6.22249 3.06106C6.1347 2.9879 5.98471 2.95132 5.77254 2.95132H3.42403ZM13.4641 8.44946H11.4009V1.09666H15.6919C16.343 1.09666 16.8881 1.18445 17.3271 1.36004C17.766 1.53563 18.0953 1.7917 18.3148 2.12824C18.5416 2.45747 18.655 2.86352 18.655 3.3464C18.655 3.73416 18.5855 4.0707 18.4464 4.35603C18.3148 4.63405 18.1026 4.86085 17.8099 5.03644C17.5173 5.20472 17.1368 5.31812 16.6686 5.37665V5.48639C17.049 5.5815 17.3197 5.72417 17.4807 5.91439C17.649 6.0973 17.8026 6.32776 17.9416 6.60577L18.8525 8.44946H16.4711L15.5931 6.64967C15.5053 6.46677 15.4139 6.3241 15.3188 6.22167C15.2236 6.11924 15.0993 6.04974 14.9456 6.01316C14.792 5.96926 14.5798 5.94731 14.3091 5.94731H13.4641V8.44946ZM13.4641 2.95132V4.41091H15.6699C15.9699 4.41091 16.1821 4.36701 16.3065 4.27921C16.4308 4.19142 16.493 3.99022 16.493 3.67563C16.493 3.38298 16.4308 3.1891 16.3065 3.09399C16.1821 2.99887 15.9699 2.95132 15.6699 2.95132H13.4641ZM23.4396 8.44946H21.3764V1.09666H23.4396V8.44946ZM27.9062 8.44946H21.9361V6.5948H27.9062V8.44946ZM27.7415 5.67296H21.9361V3.82927H27.7415V5.67296ZM27.9062 2.95132H21.9361V1.09666H27.9062V2.95132ZM32.5641 8.44946H30.2485L33.4201 1.09666H36.3722L39.5547 8.44946H37.1843L35.4394 4.20239L34.9565 2.96229H34.8138L34.3419 4.20239L32.5641 8.44946ZM37.5464 7.08864H32.1251V5.23398H37.5464V7.08864ZM49.7183 8.44946H47.2491L45.5371 5.83757H43.43V3.82927H45.5152L47.304 1.09666H49.7732L47.2272 4.70721L49.7183 8.44946ZM44.0336 8.44946H41.9705V1.09666H44.0336V8.44946ZM54.2556 8.44946H52.1925V1.09666H54.2556V8.44946ZM59.1726 8.44946H57.1095V1.09666H59.3043L61.3456 3.85121L62.421 5.54126H62.5637L62.4649 3.93901V1.09666H64.5281V8.44946H62.3333L60.1603 5.61808L59.2275 4.16947H59.0849L59.1726 5.57419V8.44946ZM70.9407 8.55921C70.1725 8.55921 69.5141 8.40557 68.9654 8.09828C68.4166 7.78369 67.996 7.34471 67.7033 6.78136C67.418 6.2107 67.2753 5.54126 67.2753 4.77306C67.2753 4.00486 67.4436 3.33908 67.7801 2.77573C68.1167 2.20506 68.6032 1.76609 69.2397 1.45881C69.8762 1.14421 70.6408 0.986913 71.5333 0.986913C72.3674 0.986913 73.0807 1.10397 73.6733 1.33809C74.266 1.57221 74.7196 1.90876 75.0342 2.34773C75.3488 2.77939 75.5061 3.29884 75.5061 3.90609V3.98291H73.2014V3.90609C73.2014 3.56222 73.0771 3.32079 72.8283 3.18178C72.5796 3.03546 72.1296 2.96229 71.4785 2.96229C70.9517 2.96229 70.542 3.01351 70.2493 3.11593C69.964 3.21105 69.7628 3.39029 69.6458 3.65368C69.5287 3.90974 69.4702 4.28287 69.4702 4.77306C69.4702 5.25593 69.525 5.62906 69.6348 5.89244C69.7445 6.15583 69.9348 6.33873 70.2055 6.44116C70.4835 6.53627 70.8712 6.58383 71.3687 6.58383C71.9613 6.58383 72.4076 6.56553 72.7076 6.52895C73.0076 6.48506 73.2051 6.39726 73.3002 6.26557C73.4026 6.12656 73.4539 5.91439 73.4539 5.62906V5.22301L75.517 5.17911V5.33275L73.7282 6.88013H73.4868C73.4209 7.16547 73.2966 7.43617 73.1137 7.69223C72.9381 7.9483 72.6747 8.15681 72.3235 8.31777C71.9796 8.47873 71.5187 8.55921 70.9407 8.55921ZM75.517 8.44946H73.5965V6.35336L73.4539 6.1229V4.53162H75.517V8.44946ZM75.517 5.94731H71.1712V4.43285H75.517V5.94731ZM86.98 8.44946H82.0525V1.09666H86.7276C87.2617 1.09666 87.7043 1.16616 88.0555 1.30517C88.4067 1.43686 88.67 1.6344 88.8456 1.89778C89.0212 2.16117 89.109 2.48674 89.109 2.8745C89.109 3.34274 88.97 3.7305 88.692 4.03778C88.4213 4.34506 87.9494 4.51333 87.2763 4.5426V4.65234C88.0152 4.68161 88.5603 4.85354 88.9115 5.16814C89.27 5.48273 89.4492 5.8961 89.4492 6.40824C89.4492 6.81794 89.3651 7.17644 89.1968 7.48372C89.0285 7.791 88.7615 8.02878 88.3957 8.19705C88.0372 8.36533 87.5653 8.44946 86.98 8.44946ZM84.1047 5.57419V6.5948H86.7166C86.9654 6.5948 87.1336 6.56188 87.2214 6.49603C87.3165 6.42287 87.3641 6.28386 87.3641 6.07901C87.3641 5.87415 87.3202 5.7388 87.2324 5.67296C87.1446 5.60711 86.9727 5.57419 86.7166 5.57419H84.1047ZM84.1047 2.95132V3.88414H86.5081C86.7203 3.88414 86.8629 3.85121 86.9361 3.78537C87.0093 3.71221 87.0458 3.59149 87.0458 3.42322C87.0458 3.25494 86.9983 3.13422 86.9032 3.06106C86.8154 2.9879 86.6654 2.95132 86.4532 2.95132H84.1047ZM93.9582 8.44946H91.6426L94.8142 1.09666H97.7663L100.949 8.44946H98.5784L96.8335 4.20239L96.3506 2.96229H96.208L95.7361 4.20239L93.9582 8.44946ZM98.9406 7.08864H93.5192V5.23398H98.9406V7.08864ZM105.428 8.44946H103.365V1.09666H107.656C108.307 1.09666 108.852 1.18445 109.291 1.36004C109.73 1.53563 110.059 1.7917 110.278 2.12824C110.505 2.45747 110.619 2.86352 110.619 3.3464C110.619 3.73416 110.549 4.0707 110.41 4.35603C110.278 4.63405 110.066 4.86085 109.774 5.03644C109.481 5.20472 109.101 5.31812 108.632 5.37665V5.48639C109.013 5.5815 109.283 5.72417 109.444 5.91439C109.613 6.0973 109.766 6.32776 109.905 6.60577L110.816 8.44946H108.435L107.557 6.64967C107.469 6.46677 107.378 6.3241 107.282 6.22167C107.187 6.11924 107.063 6.04974 106.909 6.01316C106.756 5.96926 106.543 5.94731 106.273 5.94731H105.428V8.44946ZM105.428 2.95132V4.41091H107.634C107.934 4.41091 108.146 4.36701 108.27 4.27921C108.394 4.19142 108.457 3.99022 108.457 3.67563C108.457 3.38298 108.394 3.1891 108.27 3.09399C108.146 2.99887 107.934 2.95132 107.634 2.95132H105.428ZM115.403 8.44946H113.34V1.09666H117.631C118.282 1.09666 118.827 1.18445 119.266 1.36004C119.705 1.53563 120.034 1.7917 120.254 2.12824C120.481 2.45747 120.594 2.86352 120.594 3.3464C120.594 3.73416 120.525 4.0707 120.386 4.35603C120.254 4.63405 120.042 4.86085 119.749 5.03644C119.456 5.20472 119.076 5.31812 118.608 5.37665V5.48639C118.988 5.5815 119.259 5.72417 119.42 5.91439C119.588 6.0973 119.742 6.32776 119.881 6.60577L120.792 8.44946H118.41L117.532 6.64967C117.444 6.46677 117.353 6.3241 117.258 6.22167C117.163 6.11924 117.038 6.04974 116.885 6.01316C116.731 5.96926 116.519 5.94731 116.248 5.94731H115.403V8.44946ZM115.403 2.95132V4.41091H117.609C117.909 4.41091 118.121 4.36701 118.246 4.27921C118.37 4.19142 118.432 3.99022 118.432 3.67563C118.432 3.38298 118.37 3.1891 118.246 3.09399C118.121 2.99887 117.909 2.95132 117.609 2.95132H115.403ZM125.379 8.44946H123.316V1.09666H125.379V8.44946ZM130.296 8.44946H128.233V1.09666H130.296V8.44946ZM134.762 8.44946H128.792V6.5948H134.762V8.44946ZM134.598 5.67296H128.792V3.82927H134.598V5.67296ZM134.762 2.95132H128.792V1.09666H134.762V2.95132ZM139.607 8.44946H137.544V1.09666H141.835C142.486 1.09666 143.031 1.18445 143.47 1.36004C143.909 1.53563 144.238 1.7917 144.457 2.12824C144.684 2.45747 144.798 2.86352 144.798 3.3464C144.798 3.73416 144.728 4.0707 144.589 4.35603C144.457 4.63405 144.245 4.86085 143.953 5.03644C143.66 5.20472 143.28 5.31812 142.811 5.37665V5.48639C143.192 5.5815 143.462 5.72417 143.623 5.91439C143.792 6.0973 143.945 6.32776 144.084 6.60577L144.995 8.44946H142.614L141.736 6.64967C141.648 6.46677 141.557 6.3241 141.461 6.22167C141.366 6.11924 141.242 6.04974 141.088 6.01316C140.935 5.96926 140.723 5.94731 140.452 5.94731H139.607V8.44946ZM139.607 2.95132V4.41091H141.813C142.113 4.41091 142.325 4.36701 142.449 4.27921C142.574 4.19142 142.636 3.99022 142.636 3.67563C142.636 3.38298 142.574 3.1891 142.449 3.09399C142.325 2.99887 142.113 2.95132 141.813 2.95132H139.607ZM151.086 8.55921C150.34 8.55921 149.696 8.46775 149.154 8.28485C148.613 8.09463 148.196 7.80564 147.903 7.41788C147.611 7.0228 147.464 6.51432 147.464 5.89244V5.8266H149.527V6.05706C149.527 6.21801 149.56 6.34605 149.626 6.44116C149.699 6.52895 149.846 6.59114 150.065 6.62772C150.285 6.6643 150.625 6.68259 151.086 6.68259C151.503 6.68259 151.81 6.67162 152.008 6.64967C152.205 6.62041 152.33 6.57651 152.381 6.51798C152.439 6.45213 152.469 6.36434 152.469 6.2546C152.469 6.1229 152.417 6.02413 152.315 5.95829C152.22 5.89244 152.022 5.84123 151.722 5.80465L149.418 5.49737C148.964 5.43152 148.584 5.3108 148.276 5.13521C147.969 4.95231 147.739 4.71453 147.585 4.42188C147.431 4.12923 147.355 3.78537 147.355 3.39029C147.355 3.09764 147.417 2.80865 147.541 2.52332C147.665 2.23799 147.867 1.98192 148.145 1.75512C148.423 1.521 148.789 1.33443 149.242 1.19542C149.696 1.05642 150.255 0.986913 150.921 0.986913C151.704 0.986913 152.348 1.09666 152.853 1.31614C153.365 1.52831 153.745 1.83559 153.994 2.23799C154.25 2.63306 154.378 3.10496 154.378 3.65368V3.71952H152.315V3.55491C152.315 3.37932 152.275 3.24031 152.194 3.13788C152.121 3.03546 151.967 2.96229 151.733 2.9184C151.506 2.8745 151.163 2.85255 150.702 2.85255C150.351 2.85255 150.083 2.87084 149.901 2.90742C149.718 2.93669 149.59 2.98424 149.516 3.05009C149.451 3.11593 149.418 3.20373 149.418 3.31347C149.418 3.38663 149.432 3.45248 149.462 3.51101C149.498 3.56222 149.553 3.60246 149.626 3.63173C149.707 3.66099 149.813 3.6866 149.944 3.70855L152.249 4.04875C152.849 4.13655 153.314 4.29019 153.643 4.50968C153.972 4.72185 154.203 4.97426 154.334 5.2669C154.466 5.55955 154.532 5.86318 154.532 6.17777C154.532 6.5948 154.415 6.98622 154.181 7.35203C153.954 7.71052 153.588 8.00317 153.083 8.22998C152.578 8.44946 151.913 8.55921 151.086 8.55921Z" fill="#F2E7E0"/>
<path d="M1.71587 13.2842H3.38536L3.52449 14.5363V47.4161L3.38536 48.5291H1.71587V13.2842ZM10.2952 22.2809C10.2952 24.6924 10.0324 26.5474 9.50684 27.8459C9.01218 29.1135 8.28564 30.01 7.32723 30.5356C8.37839 31.0612 9.16676 32.0042 9.69234 33.3645C10.2488 34.7248 10.5271 36.6416 10.5271 39.115C10.5271 42.6394 10.017 45.0973 8.99672 46.4886C8.00739 47.8489 6.49248 48.5291 4.45198 48.5291H2.64337V46.8596H4.82298C5.62681 46.8596 6.30698 46.6277 6.86348 46.1639C7.45089 45.7002 7.89918 44.9118 8.20835 43.7988C8.51751 42.6549 8.6721 41.0936 8.6721 39.115C8.6721 37.1363 8.51751 35.5905 8.20835 34.4775C7.89918 33.3336 7.45089 32.5297 6.86348 32.066C6.30698 31.6022 5.62681 31.3704 4.82298 31.3704H2.82887V29.6545H4.82298C5.5959 29.6545 6.24515 29.4381 6.77073 29.0052C7.32723 28.5415 7.7446 27.784 8.02285 26.7329C8.33201 25.6508 8.4866 24.1668 8.4866 22.2809C8.4866 20.4259 8.33201 18.9728 8.02285 17.9217C7.7446 16.8396 7.32723 16.0821 6.77073 15.6493C6.24515 15.1855 5.5959 14.9537 4.82298 14.9537H2.64337V13.2842H4.45198C6.49248 13.2842 7.97647 13.9643 8.90397 15.3247C9.83147 16.6541 10.2952 18.9728 10.2952 22.2809ZM13.1705 37.2136V13.2842H14.9791V36.3325C14.9791 38.4966 15.0254 40.2898 15.1182 41.712C15.2419 43.1032 15.4119 44.2007 15.6283 45.0046C15.8757 45.8084 16.1539 46.3804 16.4631 46.7204C16.8032 47.0296 17.1741 47.1842 17.5761 47.1842C18.0089 47.1842 18.3799 47.0296 18.6891 46.7204C19.0291 46.3804 19.3074 45.8084 19.5238 45.0046C19.7711 44.2007 19.9412 43.1032 20.0339 41.712C20.1576 40.2898 20.2194 38.4966 20.2194 36.3325V13.2842H22.028V37.2136C22.028 40.2125 21.8735 42.5467 21.5643 44.2162C21.2551 45.8857 20.7759 47.0605 20.1267 47.7407C19.4774 48.4208 18.6272 48.7609 17.5761 48.7609C16.5867 48.7609 15.752 48.4208 15.0718 47.7407C14.4226 47.0605 13.9434 45.8857 13.6342 44.2162C13.325 42.5467 13.1705 40.2125 13.1705 37.2136ZM27.1195 48.5291H25.3109V13.2842H27.1195V48.5291ZM30.6096 48.5291V13.2842H32.4182V46.8596H37.5658V48.5291H30.6096ZM41.0638 13.2842L41.2493 14.5363V47.3697L41.1566 48.5291H39.4407V13.2842H41.0638ZM46.3969 30.9066C46.3969 27.3821 46.3042 24.5687 46.1187 22.4664C45.9332 20.3331 45.6549 18.7255 45.2839 17.6434C44.9129 16.5613 44.4647 15.8502 43.9391 15.5102C43.4135 15.1392 42.8106 14.9537 42.1305 14.9537H40.3682V13.2842H41.8058C42.8879 13.2842 43.8309 13.4851 44.6347 13.887C45.4385 14.289 46.1032 15.0773 46.6288 16.2522C47.1544 17.427 47.5563 19.1892 47.8346 21.5389C48.1128 23.8886 48.2519 27.0111 48.2519 30.9066C48.2519 34.8021 48.1128 37.9247 47.8346 40.2743C47.5563 42.624 47.1544 44.3862 46.6288 45.5611C46.1032 46.7359 45.4385 47.5243 44.6347 47.9262C43.8309 48.3281 42.8879 48.5291 41.8058 48.5291H40.3682V46.8596H42.1305C42.8106 46.8596 43.4135 46.6895 43.9391 46.3494C44.4647 45.9784 44.9129 45.2519 45.2839 44.1698C45.6549 43.0877 45.9332 41.4955 46.1187 39.3932C46.3042 37.2909 46.3969 34.462 46.3969 30.9066ZM52.9789 48.5291H51.1703V13.2842H52.9789V48.5291ZM59.066 13.2842L65.0947 45.6538L65.2338 47.5088V45.6538L64.9556 13.2842H66.6714V48.5291H64.1208L58.0457 16.2058L57.9066 14.3508V16.2058L58.1848 48.5291H56.469V13.2842H59.066ZM69.6822 30.9066C69.6822 27.1348 69.7749 24.0741 69.9604 21.7244C70.1768 19.3747 70.486 17.5816 70.8879 16.3449C71.2898 15.0773 71.769 14.2117 72.3255 13.7479C72.882 13.2842 73.5158 13.0523 74.2269 13.0523C75.0926 13.0523 75.8191 13.346 76.4065 13.9334C76.9939 14.5208 77.4732 15.572 77.8442 17.0869C78.2152 18.6018 78.4625 20.7196 78.5862 23.4403L78.6325 25.017H76.8703L76.8239 23.4866C76.7312 21.0751 76.5611 19.2356 76.3138 17.968C76.0665 16.7005 75.7727 15.8348 75.4327 15.371C75.0926 14.8764 74.6907 14.629 74.2269 14.629C73.825 14.629 73.454 14.8609 73.1139 15.3247C72.8048 15.7575 72.5265 16.5459 72.2792 17.6898C72.0318 18.8337 71.8463 20.4723 71.7227 22.6055C71.599 24.7388 71.5372 27.5058 71.5372 30.9066C71.5372 34.5548 71.599 37.4609 71.7227 39.6251C71.8463 41.7892 72.0318 43.4278 72.2792 44.5408C72.5265 45.6229 72.8048 46.334 73.1139 46.6741C73.454 47.0141 73.8405 47.1842 74.2733 47.1842C74.6443 47.1842 75.0462 47.1069 75.479 46.9523C75.9119 46.7977 76.3602 46.5659 76.8239 46.2567V47.3697C76.3292 47.8334 75.8191 48.189 75.2935 48.4363C74.7989 48.6527 74.3042 48.7609 73.8095 48.7609C73.284 48.7609 72.8048 48.6527 72.3719 48.4363C71.9391 48.2199 71.5526 47.7871 71.2126 47.1378C70.9034 46.4576 70.6251 45.4683 70.3778 44.1698C70.1614 42.8713 69.9913 41.14 69.8677 38.9758C69.744 36.8117 69.6822 34.1219 69.6822 30.9066ZM78.5398 48.5291H77.1022L76.8239 47.3697V29.8864H78.5398V48.5291ZM74.2733 31.6022V29.8864H78.5398V31.6022H74.2733ZM86.8572 13.2842H88.5267L88.6658 14.5363V47.4161L88.5267 48.5291H86.8572V13.2842ZM95.4365 22.2809C95.4365 24.6924 95.1737 26.5474 94.6482 27.8459C94.1535 29.1135 93.427 30.01 92.4685 30.5356C93.5197 31.0612 94.3081 32.0042 94.8337 33.3645C95.3902 34.7248 95.6684 36.6416 95.6684 39.115C95.6684 42.6394 95.1583 45.0973 94.138 46.4886C93.1487 47.8489 91.6338 48.5291 89.5933 48.5291H87.7847V46.8596H89.9643C90.7681 46.8596 91.4483 46.6277 92.0048 46.1639C92.5922 45.7002 93.0405 44.9118 93.3497 43.7988C93.6588 42.6549 93.8134 41.0936 93.8134 39.115C93.8134 37.1363 93.6588 35.5905 93.3497 34.4775C93.0405 33.3336 92.5922 32.5297 92.0048 32.066C91.4483 31.6022 90.7681 31.3704 89.9643 31.3704H87.9702V29.6545H89.9643C90.7372 29.6545 91.3865 29.4381 91.912 29.0052C92.4685 28.5415 92.8859 27.784 93.1642 26.7329C93.4733 25.6508 93.6279 24.1668 93.6279 22.2809C93.6279 20.4259 93.4733 18.9728 93.1642 17.9217C92.8859 16.8396 92.4685 16.0821 91.912 15.6493C91.3865 15.1855 90.7372 14.9537 89.9643 14.9537H87.7847V13.2842H89.5933C91.6338 13.2842 93.1178 13.9643 94.0453 15.3247C94.9728 16.6541 95.4365 18.9728 95.4365 22.2809ZM98.4509 13.2842H100.12L100.26 14.5363V48.5291H98.4509V13.2842ZM102.764 30.8139H104.433L107.123 48.5291H105.314L102.764 30.8139ZM101.187 31.7877H99.3784V30.211H101.558C102.393 30.211 103.088 29.9946 103.645 29.5617C104.232 29.1289 104.665 28.3715 104.943 27.2894C105.253 26.2073 105.407 24.646 105.407 22.6055C105.407 20.565 105.253 19.0037 104.943 17.9217C104.665 16.8087 104.232 16.0357 103.645 15.6029C103.088 15.1701 102.393 14.9537 101.558 14.9537H99.3784V13.2842H101.187C102.609 13.2842 103.769 13.5779 104.665 14.1653C105.562 14.7218 106.211 15.6802 106.613 17.0405C107.015 18.3699 107.216 20.2249 107.216 22.6055C107.216 25.2025 106.953 27.1348 106.427 28.4024C105.902 29.67 105.144 30.5511 104.155 31.0457H103.32V31.5559C102.702 31.7104 101.991 31.7877 101.187 31.7877ZM111.672 48.5291H109.863V13.2842H111.672V48.5291ZM116.785 13.2842L116.971 14.5363V47.3697L116.878 48.5291H115.162V13.2842H116.785ZM122.118 30.9066C122.118 27.3821 122.026 24.5687 121.84 22.4664C121.655 20.3331 121.376 18.7255 121.005 17.6434C120.634 16.5613 120.186 15.8502 119.66 15.5102C119.135 15.1392 118.532 14.9537 117.852 14.9537H116.09V13.2842H117.527C118.609 13.2842 119.552 13.4851 120.356 13.887C121.16 14.289 121.825 15.0773 122.35 16.2522C122.876 17.427 123.278 19.1892 123.556 21.5389C123.834 23.8886 123.973 27.0111 123.973 30.9066C123.973 34.8021 123.834 37.9247 123.556 40.2743C123.278 42.624 122.876 44.3862 122.35 45.5611C121.825 46.7359 121.16 47.5243 120.356 47.9262C119.552 48.3281 118.609 48.5291 117.527 48.5291H116.09V46.8596H117.852C118.532 46.8596 119.135 46.6895 119.66 46.3494C120.186 45.9784 120.634 45.2519 121.005 44.1698C121.376 43.0877 121.655 41.4955 121.84 39.3932C122.026 37.2909 122.118 34.462 122.118 30.9066ZM126.428 30.9066C126.428 27.1348 126.521 24.0741 126.706 21.7244C126.923 19.3747 127.232 17.5816 127.634 16.3449C128.036 15.0773 128.515 14.2117 129.071 13.7479C129.628 13.2842 130.262 13.0523 130.973 13.0523C131.838 13.0523 132.565 13.346 133.152 13.9334C133.74 14.5208 134.219 15.572 134.59 17.0869C134.961 18.6018 135.208 20.7196 135.332 23.4403L135.378 25.017H133.616L133.57 23.4866C133.477 21.0751 133.307 19.2356 133.06 17.968C132.812 16.7005 132.519 15.8348 132.178 15.371C131.838 14.8764 131.436 14.629 130.973 14.629C130.571 14.629 130.2 14.8609 129.86 15.3247C129.551 15.7575 129.272 16.5459 129.025 17.6898C128.778 18.8337 128.592 20.4723 128.468 22.6055C128.345 24.7388 128.283 27.5058 128.283 30.9066C128.283 34.5548 128.345 37.4609 128.468 39.6251C128.592 41.7892 128.778 43.4278 129.025 44.5408C129.272 45.6229 129.551 46.334 129.86 46.6741C130.2 47.0141 130.586 47.1842 131.019 47.1842C131.39 47.1842 131.792 47.1069 132.225 46.9523C132.658 46.7977 133.106 46.5659 133.57 46.2567V47.3697C133.075 47.8334 132.565 48.189 132.039 48.4363C131.545 48.6527 131.05 48.7609 130.555 48.7609C130.03 48.7609 129.551 48.6527 129.118 48.4363C128.685 48.2199 128.298 47.7871 127.958 47.1378C127.649 46.4576 127.371 45.4683 127.124 44.1698C126.907 42.8713 126.737 41.14 126.613 38.9758C126.49 36.8117 126.428 34.1219 126.428 30.9066ZM135.286 48.5291H133.848L133.57 47.3697V29.8864H135.286V48.5291ZM131.019 31.6022V29.8864H135.286V31.6022H131.019ZM144.84 46.8596V48.5291H138.44V13.2842H144.84V14.9537H140.202V29.1444H144.376V30.9066H140.202V46.8596H144.84ZM149.832 13.0523C150.666 13.0523 151.393 13.3305 152.011 13.887C152.63 14.4435 153.109 15.4329 153.449 16.855C153.789 18.2772 153.959 20.2868 153.959 22.8838V24.0895H152.243V22.9301C152.243 20.7969 152.135 19.1274 151.919 17.9217C151.733 16.7159 151.455 15.8657 151.084 15.371C150.744 14.8764 150.342 14.629 149.878 14.629C149.352 14.629 148.873 15.031 148.44 15.8348C148.008 16.6077 147.791 17.628 147.791 18.8955C147.791 20.9051 147.992 22.6828 148.394 24.2286C148.827 25.7745 149.352 27.2275 149.971 28.5879C150.589 29.9482 151.207 31.3085 151.826 32.6689C152.444 34.0292 152.954 35.5286 153.356 37.1672C153.789 38.7749 154.005 40.6453 154.005 42.7786C154.005 43.8297 153.882 44.8191 153.634 45.7466C153.387 46.6431 152.985 47.3697 152.429 47.9262C151.872 48.4827 151.146 48.7609 150.249 48.7609C149.445 48.7609 148.734 48.4827 148.116 47.9262C147.497 47.3697 147.003 46.3958 146.632 45.0046C146.292 43.5824 146.122 41.5574 146.122 38.9295V38.2338H147.791V38.8831C147.791 41.0163 147.899 42.6858 148.116 43.8916C148.332 45.0973 148.61 45.9475 148.951 46.4422C149.322 46.9368 149.739 47.1842 150.203 47.1842C150.697 47.1842 151.084 46.9678 151.362 46.5349C151.671 46.1021 151.888 45.5611 152.011 44.9118C152.166 44.2317 152.243 43.536 152.243 42.8249C152.243 40.8154 152.027 39.0377 151.594 37.4918C151.192 35.946 150.682 34.4929 150.064 33.1326C149.476 31.7723 148.858 30.4119 148.209 29.0516C147.59 27.6604 147.065 26.1609 146.632 24.5533C146.23 22.9147 146.029 21.0597 146.029 18.9883C146.029 17.2879 146.369 15.8812 147.049 14.7682C147.76 13.6243 148.688 13.0523 149.832 13.0523Z" fill="#F2E7E0"/>
</svg>
