<svg width="846" height="193" viewBox="0 0 846 193" fill="none" xmlns="http://www.w3.org/2000/svg" opacity="0.1">
<path d="M229.024 57.8595V151.201H211.99V57.8595H229.024Z" fill="white"/>
<path d="M248.506 59.0989C255.954 57.8576 265.539 57.1335 275.608 57.1335C293.056 57.1335 305.09 60.754 313.676 67.9262C322.675 75.2707 328.227 86.3393 328.227 102.27C328.227 118.89 322.537 131.338 313.676 139.372C304.4 147.82 289.573 152.095 271.47 152.095C261.505 152.095 254.023 151.544 248.506 150.854V59.0989ZM265.539 138.13C267.919 138.544 271.505 138.544 274.953 138.544C297.09 138.682 310.227 126.476 310.227 102.856C310.365 82.2015 298.469 70.4778 277.16 70.4778C271.781 70.4778 267.884 70.8916 265.539 71.4433C265.539 71.4088 265.539 138.13 265.539 138.13Z" fill="white"/>
<path d="M343.089 59.0989C349.468 57.9955 359.019 57.1335 368.847 57.1335C382.294 57.1335 391.397 59.3403 397.673 64.5815C402.811 68.8572 405.707 75.3742 405.707 83.2704C405.707 95.339 397.535 103.511 388.846 106.649V107.063C395.466 109.545 399.501 116.062 401.88 125.062C404.776 136.717 407.259 147.475 409.224 151.096H391.639C390.26 148.303 388.018 140.717 385.432 129.096C382.812 116.924 378.398 113.062 368.674 112.752H360.088V151.096H343.227V59.0989H343.089ZM359.95 100.339H370.053C381.536 100.339 388.742 94.2356 388.742 84.96C388.742 74.719 381.536 69.9951 370.467 69.9951C365.088 69.9951 361.605 70.4089 359.95 70.8226V100.339Z" fill="white"/>
<path d="M488.668 148.406C484.634 150.475 475.772 152.544 464.565 152.544C434.911 152.544 416.912 134.028 416.912 105.615C416.912 74.8918 438.222 56.3062 466.738 56.3062C477.944 56.3062 485.978 58.6855 489.461 60.444L485.737 73.9952C481.289 72.0298 475.22 70.3747 467.462 70.3747C448.532 70.3747 434.808 82.2708 434.808 104.718C434.808 125.2 446.877 138.338 467.359 138.338C474.289 138.338 481.496 136.958 485.875 134.89L488.668 148.406Z" fill="white"/>
<path d="M640.422 147.787C636.388 149.856 627.526 151.925 616.32 151.925C586.666 151.925 568.666 133.409 568.666 104.996C568.666 74.2728 589.976 55.6873 618.492 55.6873C629.698 55.6873 637.733 58.0665 641.215 59.825L637.491 73.3763C633.043 71.4108 626.974 69.7557 619.216 69.7557C600.217 69.7557 586.562 81.6518 586.562 104.099C586.562 124.581 598.631 137.719 619.113 137.719C626.043 137.719 633.25 136.339 637.629 134.271L640.422 147.787Z" fill="white"/>
<path d="M654.941 58.4801C661.32 57.3767 670.871 56.5147 680.699 56.5147C694.146 56.5147 703.249 58.7215 709.525 63.9627C714.663 68.2384 717.559 74.7554 717.559 82.6516C717.559 94.7202 709.387 102.892 700.698 106.03V106.444C707.318 108.927 711.353 115.444 713.732 124.443C716.628 136.098 719.111 146.856 721.076 150.477H703.491C702.112 147.684 699.87 140.098 697.284 128.478C694.629 116.306 690.25 112.444 680.526 112.133H671.94V150.477H655.079V58.4801H654.941ZM671.837 99.72H681.94C693.422 99.72 700.629 93.6168 700.629 84.3412C700.629 74.1002 693.422 69.3763 682.354 69.3763C676.975 69.3763 673.492 69.79 671.837 70.2038V99.72Z" fill="white"/>
<path d="M733.695 58.4801C741.143 57.2388 750.729 56.5147 760.798 56.5147C778.245 56.5147 790.279 60.1352 798.865 67.3074C807.865 74.6519 813.417 85.7205 813.417 101.651C813.417 118.271 807.727 130.719 798.865 138.753C789.59 147.201 774.763 151.477 756.66 151.477C746.695 151.477 739.212 150.925 733.695 150.235V58.4801ZM750.764 137.512C753.143 137.925 756.729 137.925 760.177 137.925C782.314 138.063 795.452 125.857 795.452 102.237C795.59 81.5827 783.693 69.859 762.384 69.859C757.005 69.859 753.108 70.2728 750.729 70.8245V137.512H750.764Z" fill="white"/>
<path d="M845.278 57.2407V150.582H828.244V57.2407H845.278Z" fill="white"/>
<path d="M526.874 116.545C532.682 116.545 537.391 111.837 537.391 106.028C537.391 100.22 532.682 95.5116 526.874 95.5116C521.065 95.5116 516.357 100.22 516.357 106.028C516.357 111.837 521.065 116.545 526.874 116.545Z" fill="white"/>
<path d="M-52.1389 127.823C-67.8624 91.9964 -30.2431 28.1712 21.7549 8.10297C25.3755 6.68923 48.7884 21.7921 47.9954 22.2404C29.6857 33.0676 -22.1745 63.8251 -52.1389 127.823Z" fill="white"/>
<path d="M43.7192 76.2717L51.0983 61.2723L58.4428 75.6855C59.3393 77.2027 60.0979 77.0993 61.5462 76.3407L67.8218 73.2373L63.753 96.133C62.9254 100.098 65.1667 101.236 67.6149 98.5812L76.5801 88.9954L78.9593 94.4435C79.7524 96.0986 80.9937 95.8572 82.5799 95.5124L91.8209 93.5469L88.7176 105.236L88.6831 105.478C88.3038 106.995 87.6142 108.305 89.3037 108.995L92.5105 110.684L73.4423 126.856C71.4768 128.856 72.1665 129.477 72.8906 131.718L74.6836 137.166L56.8912 133.925C54.6843 133.373 54.0982 133.373 54.0637 135.166L54.8223 151.131H47.5122L48.2018 135.201C48.2018 133.201 47.6156 133.235 44.0296 133.994L27.5819 137.2L29.6853 131.752C30.4439 129.684 30.5818 128.27 28.9267 126.891L9.41016 110.96L13.0307 108.753C14.0652 107.96 14.0996 107.098 13.5824 105.34L9.92738 93.4435L19.3408 95.4434C21.9614 96.0641 22.6855 95.4434 23.3752 93.9952L25.9957 88.6506L35.2713 99.1329C36.9264 101.098 39.2366 99.7881 38.5125 97.0296L34.0299 72.4098L40.9262 76.3407C42.0296 76.9958 43.202 77.2027 43.8572 75.9269" fill="white"/>
<path d="M31.0667 4.17082C66.8929 -11.5527 130.718 26.0666 150.786 78.0646C152.2 81.6852 137.097 105.098 136.649 104.305C125.787 85.9954 95.0298 34.1352 31.0667 4.17082Z" fill="white"/>
<path d="M154.474 87.3066C170.197 123.133 132.578 186.958 80.5799 207.026C76.9594 208.44 53.5464 193.337 54.3395 192.889C72.6492 182.027 124.509 151.27 154.474 87.3066Z" fill="white"/>
<path d="M71.2694 210.749C35.4431 226.472 -28.3821 188.853 -48.4503 136.855C-49.8641 133.235 -34.7612 109.822 -34.3129 110.615C-23.4513 128.924 7.30623 180.785 71.2694 210.749Z" fill="white"/>
</svg>
